<?xml version="1.0" encoding="UTF-8"?>
<svg enable-background="new 0 0 1733.654 1693.909" version="1.1" viewBox="0 0 1733.654 1693.909" xmlns="http://www.w3.org/2000/svg">
 <path d="m1694.2 714.76c-17.45-166.57-111.25-320.95-264.11-434.71-9.12-6.79-18.4-13.39-27.84-19.81-0.16-0.12-0.32-0.23-0.48-0.33-143.74-97.66-323.4-152.77-511.77-156.76-0.6-0.24-1.19-0.48-1.79-0.72v-59.68c0-2.32-1.88-4.2-4.2-4.2h-16.06c-2.32 0-4.2 1.88-4.2 4.2v59.58c-0.51 0.21-1.02 0.4-1.53 0.61-76.54 0.42-151.61 9.21-223.52 25.83-0.27 0.06-0.53 0.12-0.8 0.18-82.83 19.21-161.45 48.8-233.26 87.93-0.27 0.15-0.53 0.29-0.79 0.43-38.88 21.24-75.77 45.28-110.24 71.99-75.55 58.54-135.95 127-179.51 203.49-45 79.01-70.1 163.37-74.61 250.74-0.1 2.02 1.25 3.83 3.21 4.3 1.97 0.47 4-0.52 4.82-2.37 33.65-75.19 111.55-123.78 198.46-123.78 94.76 0 177.39 57.04 205.63 141.94 0.45 1.35 1.54 2.34 2.87 2.71-0.64 4.41-0.95 6.84-0.97 7.02-0.14 1.15 0.68 2.2 1.83 2.34 0.09 0.01 0.17 0.01 0.26 0.01 1.04 0 1.95-0.78 2.08-1.85 0.02-0.2 0.42-3.35 1.26-9.03 0.27-0.36 0.49-0.76 0.64-1.21 28.14-84.89 110.74-141.93 205.54-141.93 87.18 0 165.6 50.07 198.63 124.25v431.07c0 95.15 0.28 190.27-1.35 285.41-0.12 6.61-0.23 13.22-0.34 19.83-0.46 26.38-0.96 53.13-8.38 78.46-7.42 25.32-22.72 49.47-46.08 61.72-28.85 15.12-66.47 8.79-91.17-12.44s-36.61-55.28-34.2-87.76c0.48-6.54 1.47-13.32-0.69-19.51-2.15-6.2-8.81-11.45-15.05-9.41-6.28 2.06-8.44 9.74-9.23 16.3-4.86 39.95 6.81 82.49 34.59 111.61s72.06 42.78 110.4 30.53c24.4-7.8 45.14-25.25 59.16-46.7 31.13-47.62 27.71-108.43 26.89-162.83-0.45-30.05-0.09-60.14-0.09-90.19v-580.54c0-4.97-1.63-14.17-1.02-20.73h-0.102v-0.01h0.102c0.16-1.74 0.47-3.31 1.02-4.55 32.96-74.33 111.46-124.51 198.74-124.51 93.03 0 175.15 55.65 204.35 138.48 0.42 1.18 1.33 2.07 2.44 2.51 0.4 2.75 0.59 4.28 0.61 4.42 0.13 1.06 1.03 1.84 2.08 1.84 0.09 0 0.17 0 0.26-0.01 1.15-0.15 1.97-1.19 1.83-2.34-0.02-0.14-0.22-1.72-0.63-4.55 0.6-0.48 1.07-1.12 1.34-1.87 29.11-82.83 111.2-138.48 204.26-138.48 75.17 0 143.59 35.82 183.02 95.82 1.07 1.62 3.1 2.3 4.92 1.65 1.83-0.65 2.98-2.46 2.77-4.39z" fill="#231F20"/>
 <g fill="#fff">
  <path d="m423.11 267.26c-3.81 6.62-10.87 10.69-18.51 10.69s-14.69-4.07-18.51-10.69c-3.82-6.61-3.82-14.76 0-21.37 3.29-5.71 14.66-23.71 17.73-28.58 0.5-0.78 0.78-1.22 0.78-1.22 0 0.27 0 0.53 0.01 0.79 0.44 16.7 14.75 22.49 18.5 29.01 3.82 6.61 3.82 14.76 0 21.37z"/>
  <path d="m442.92 396.48c-3.45 5.97-9.82 9.65-16.72 9.65s-13.27-3.68-16.72-9.65-3.45-13.34 0-19.31c3.45-5.98 16.72-26.92 16.72-26.92 0 15.64 13.27 20.95 16.72 26.92s3.45 13.33 0 19.31z"/>
  <path d="m812.37 513.77c-7.39 12.81-21.06 20.7-35.85 20.7-14.8 0-28.47-7.89-35.86-20.7-7.4-12.81-7.4-28.6 0-41.41 7.39-12.81 35.86-57.72 35.86-57.72 0 33.54 28.46 44.91 35.85 57.72 7.4 12.81 7.4 28.6 0 41.41z"/>
  <path d="m1308.5 708.57c-2.15 3.72-6.12 6.01-10.42 6.01-4.29 0-8.26-2.29-10.41-6.01-2.15-3.73-2.15-8.31 0-12.03 2.14-3.72 10.41-16.76 10.41-16.76 0 9.74 8.27 13.04 10.42 16.76 2.14 3.72 2.14 8.3 0 12.03z"/>
  <path d="m1367.7 592.25c-5.03 8.7-14.31 14.06-24.36 14.06-10.04 0-19.33-5.36-24.35-14.06-5.03-8.7-5.03-19.42 0-28.12 5.02-8.7 24.35-39.2 24.35-39.2 0 22.77 19.33 30.5 24.36 39.2 5.02 8.7 5.02 19.42 0 28.12z"/>
  <path d="m1141.2 240.3c-2 3.46-5.69 5.59-9.69 5.59s-7.69-2.13-9.69-5.59c-1.99-3.46-1.99-7.73 0-11.19 2-3.46 9.69-15.59 9.69-15.59 0 9.06 7.69 12.13 9.69 15.59 1.99 3.46 1.99 7.73 0 11.19z"/>
  <path d="m515.56 401.51c-2.26 3.92-6.43 6.33-10.95 6.33s-8.7-2.41-10.96-6.33c-2.26-3.91-2.26-8.74 0-12.65s10.96-17.64 10.96-17.64c0 10.25 8.69 13.73 10.95 17.64 2.26 3.92 2.26 8.74 0 12.65z"/>
  <path d="m1274.9 503.03c-6.61 11.45-18.83 18.51-32.05 18.51-13.23 0-25.45-7.06-32.06-18.51s-6.61-25.56 0-37.02c6.61-11.45 32.06-51.6 32.06-51.6 0 29.98 25.44 40.15 32.05 51.6 6.62 11.46 6.62 25.57 0 37.02z"/>
  <path d="m859.08 484.94c-2.16 3.75-6.16 6.06-10.49 6.06s-8.33-2.31-10.49-6.06c-2.16-3.74-2.16-8.36 0-12.11s10.49-16.89 10.49-16.89c0 9.81 8.33 13.14 10.49 16.89 2.17 3.75 2.17 8.37 0 12.11z"/>
  <path d="m673.46 223.93c-7.18 12.44-20.44 20.1-34.8 20.1s-27.63-7.66-34.81-20.1c-7.18-12.43-7.18-27.75 0-40.19 6.46-11.18 29.47-47.6 34.02-54.79 0.51-0.8 0.79-1.24 0.79-1.24 0 0.36 0 0.71 0.01 1.06 0.59 31.73 27.69 42.68 34.79 54.97 7.18 12.44 7.18 27.76 0 40.19z"/>
  <path d="m626.09 299.93c-3.64 6.3-10.37 10.19-17.65 10.19s-14.01-3.89-17.65-10.19c-3.64-6.31-3.64-14.07 0-20.38 3.64-6.3 17.65-28.41 17.65-28.41 0 16.51 14.01 22.11 17.65 28.41 3.64 6.31 3.64 14.07 0 20.38z"/>
  <path d="m765.84 142.91c-2.09 3.61-5.95 5.84-10.13 5.84-4.17 0-8.03-2.22-10.12-5.84s-2.09-8.07 0-11.69 10.12-16.3 10.12-16.3c0 9.47 8.04 12.68 10.13 16.3 2.08 3.62 2.08 8.07 0 11.69z"/>
  <path d="m1044.7 211.83c-7 12.12-19.93 19.59-33.93 19.59s-26.93-7.47-33.93-19.59-6.99-27.05 0-39.18c7-12.12 33.93-54.61 33.93-54.61 0 31.73 26.93 42.49 33.93 54.61 7 12.13 7 27.06 0 39.18z"/>
  <path d="m825.12 330.17c-4.44 7.7-12.66 12.44-21.55 12.44s-17.1-4.74-21.55-12.44c-4.44-7.7-4.44-17.18 0-24.88 4.45-7.7 21.55-34.69 21.55-34.69 0 20.16 17.11 26.99 21.55 34.69 4.45 7.7 4.45 17.18 0 24.88z"/>
  <path d="m1097.7 338.76c-2.85 4.94-8.12 7.99-13.83 7.99-5.7 0-10.97-3.05-13.83-7.99-2.85-4.94-2.85-11.02 0-15.96 2.85-4.95 13.83-22.26 13.83-22.26 0 12.93 10.98 17.31 13.83 22.26 2.85 4.94 2.85 11.02 0 15.96z"/>
  <path d="m1606.1 624.11c-2.41 4.17-6.85 6.73-11.66 6.73s-9.26-2.56-11.66-6.73c-2.41-4.16-2.41-9.3 0-13.46 2.4-4.17 11.66-18.77 11.66-18.77 0 10.9 9.25 14.6 11.66 18.77 2.4 4.16 2.4 9.3 0 13.46z"/>
  <path d="m184.95 518.73c-5.27 9.12-15 14.75-25.54 14.75s-20.27-5.62-25.54-14.75c-5.27-9.12-5.27-20.37 0-29.49 5.27-9.13 25.54-41.11 25.54-41.11 0 23.88 20.27 31.98 25.54 41.11 5.27 9.12 5.27 20.37 0 29.49z"/>
  <path d="m986.64 541.68c-7.4 12.81-21.06 20.7-35.86 20.7-14.79 0-28.46-7.89-35.85-20.7-7.4-12.81-7.4-28.59 0-41.41 7.39-12.81 35.85-57.71 35.85-57.71 0 33.53 28.46 44.9 35.86 57.71 7.4 12.82 7.4 28.6 0 41.41z"/>
  <path d="m563.5 623.93c-1.86 3.22-5.29 5.2-9.01 5.2s-7.15-1.98-9.01-5.2-1.86-7.19 0-10.41 9.01-14.5 9.01-14.5c0 8.43 7.15 11.28 9.01 14.5s1.86 7.19 0 10.41z"/>
  <path d="m471.39 565.83c-6.16 10.68-17.56 17.26-29.9 17.26-12.33 0-23.73-6.58-29.89-17.26-6.17-10.68-6.17-23.84 0-34.52 6.16-10.68 29.89-48.13 29.89-48.13 0 27.96 23.74 37.45 29.9 48.13 6.17 10.68 6.17 23.84 0 34.52z"/>
  <path d="m1212 281.33c-5.39 9.33-15.34 15.07-26.11 15.07s-20.72-5.74-26.1-15.07c-5.39-9.33-5.39-20.82 0-30.14 5.38-9.33 26.1-42.02 26.1-42.02 0 24.41 20.72 32.69 26.11 42.02 5.38 9.32 5.38 20.82 0 30.14z"/>
  <path d="m255.54 449c-6.5 11.27-18.53 18.21-31.54 18.21-13.02 0-25.04-6.94-31.55-18.21s-6.51-25.16 0-36.43 31.55-50.77 31.55-50.77c0 29.5 25.04 39.5 31.54 50.77 6.51 11.27 6.51 25.16 0 36.43z"/>
  <path d="m329.21 379.1c-5.73 9.92-16.31 16.04-27.77 16.04s-22.04-6.12-27.77-16.04-5.73-22.14 0-32.07c5.73-9.92 27.77-44.7 27.77-44.7 0 25.97 22.04 34.78 27.77 44.7 5.73 9.93 5.73 22.15 0 32.07z"/>
  <path d="m875.29 134.66c-2.28 3.94-6.49 6.38-11.05 6.38s-8.77-2.44-11.05-6.38c-2.28-3.95-2.28-8.81 0-12.76s11.05-17.79 11.05-17.79c0 10.33 8.77 13.84 11.05 17.79s2.28 8.81 0 12.76z"/>
  <path d="m1291.8 401.3c-3.6 6.24-10.25 10.08-17.45 10.08s-13.85-3.84-17.45-10.08-3.6-13.92 0-20.16c3.6-6.23 17.45-28.09 17.45-28.09 0 16.32 13.85 21.86 17.45 28.09 3.6 6.24 3.6 13.92 0 20.16z"/>
  <path d="m372.44 308.23c-0.99 1.72-2.18 3.28-3.54 4.66-0.28 0.29-0.56 0.56-0.85 0.83-4.26 3.93-9.89 6.19-15.85 6.19-8.35 0-16.06-4.45-20.24-11.68-4.17-7.23-4.17-16.14 0-23.37 4.18-7.24 20.24-32.58 20.24-32.58 0 18.92 16.07 25.34 20.24 32.58 4.18 7.23 4.18 16.14 0 23.37z"/>
  <path d="m1478.2 369.38c-3.3 5.73-9.42 9.26-16.03 9.26-6.62 0-12.73-3.53-16.04-9.26s-3.31-12.79 0-18.52 16.04-25.81 16.04-25.81c0 14.99 12.73 20.08 16.03 25.81 3.31 5.73 3.31 12.79 0 18.52z"/>
  <path d="m685.93 343.15c-5.61 9.72-15.97 15.7-27.19 15.7s-21.59-5.98-27.19-15.7c-5.61-9.71-5.61-21.68 0-31.39 5.6-9.72 27.19-43.77 27.19-43.77 0 25.43 21.58 34.05 27.19 43.77 5.61 9.71 5.61 21.68 0 31.39z"/>
  <path d="m894.19 372.16c-3.49 6.06-9.96 9.79-16.96 9.79-6.99 0-13.46-3.73-16.95-9.79-3.5-6.06-3.5-13.52 0-19.58 3.49-6.06 16.95-27.3 16.95-27.3 0 15.86 13.47 21.24 16.96 27.3 3.5 6.06 3.5 13.52 0 19.58z"/>
  <path d="m916.49 459.89c-4.54 7.86-12.93 12.7-22 12.7-9.08 0-17.46-4.84-22-12.7s-4.54-17.54 0-25.4 22-35.41 22-35.41c0 20.57 17.46 27.55 22 35.41s4.54 17.54 0 25.4z"/>
  <path d="m469.22 707.67c-2.64 4.58-7.53 7.4-12.81 7.4-5.29 0-10.17-2.82-12.81-7.4-2.64-4.57-2.64-10.21 0-14.79 2.64-4.57 12.81-20.62 12.81-20.62 0 11.98 10.17 16.05 12.81 20.62 2.64 4.58 2.64 10.22 0 14.79z"/>
  <path d="m590.69 359.81c-3.65 6.32-10.39 10.21-17.69 10.21-7.29 0-14.03-3.89-17.68-10.21s-3.65-14.1 0-20.42 17.68-28.46 17.68-28.46c0 16.53 14.04 22.14 17.69 28.46s3.65 14.1 0 20.42z"/>
  <path d="m1460.7 594.24c-6 10.4-17.09 16.8-29.1 16.8-12 0-23.09-6.4-29.1-16.8-6-10.4-6-23.21 0-33.6 6.01-10.4 29.1-46.85 29.1-46.85 0 27.22 23.1 36.45 29.1 46.85 6.01 10.39 6.01 23.2 0 33.6z"/>
  <path d="m561.71 434.36c-4.04 6.99-11.5 11.29-19.57 11.29s-15.53-4.3-19.57-11.29c-4.04-7-4.04-15.61 0-22.6s19.57-31.5 19.57-31.5c0 18.3 15.53 24.51 19.57 31.5 4.03 6.99 4.03 15.6 0 22.6z"/>
  <path d="m1158.1 342.71c-2.03 3.52-5.79 5.69-9.85 5.69-4.07 0-7.83-2.17-9.86-5.69s-2.03-7.86 0-11.38 9.86-15.87 9.86-15.87c0 9.22 7.82 12.35 9.85 15.87s2.03 7.86 0 11.38z"/>
  <path d="m916.29 682.11c-7.35 12.73-20.93 20.57-35.63 20.57s-28.27-7.84-35.62-20.57-7.35-28.41 0-41.14c7.35-12.72 35.62-57.34 35.62-57.34 0 33.32 28.28 44.62 35.63 57.34 7.35 12.73 7.35 28.41 0 41.14z"/>
  <path d="m1331.5 448.5c-2.7 4.69-7.71 7.58-13.12 7.58-5.42 0-10.42-2.89-13.13-7.58s-2.71-10.47 0-15.16 13.13-21.13 13.13-21.13c0 12.27 10.41 16.44 13.12 21.13s2.71 10.47 0 15.16z"/>
  <path d="m374.6 553.08c-5.49 9.51-15.62 15.36-26.6 15.36-10.97 0-21.11-5.85-26.6-15.36-5.48-9.5-5.48-21.21 0-30.71 5.49-9.5 26.6-42.81 26.6-42.81 0 24.87 21.11 33.31 26.6 42.81s5.49 21.21 0 30.71z"/>
  <path d="m320.39 466.13c-3.56 6.16-10.13 9.96-17.25 9.96-7.11 0-13.69-3.8-17.25-9.96-3.55-6.16-3.55-13.75 0-19.91 3.56-6.16 17.25-27.76 17.25-27.76 0 16.13 13.69 21.6 17.25 27.76 3.55 6.16 3.55 13.75 0 19.91z"/>
  <path d="m1397.9 492.74c-4.72 8.17-13.45 13.21-22.89 13.21-9.45 0-18.17-5.04-22.9-13.21-4.72-8.18-4.72-18.26 0-26.44 4.73-8.18 22.9-36.85 22.9-36.85 0 21.41 18.17 28.67 22.89 36.85s4.72 18.26 0 26.44z"/>
  <path d="m1413.9 409.61c-1.89 3.28-5.4 5.3-9.19 5.3s-7.29-2.02-9.18-5.3c-1.9-3.28-1.9-7.32 0-10.61 1.89-3.28 9.18-14.78 9.18-14.78 0 8.59 7.3 11.5 9.19 14.78 1.9 3.29 1.9 7.33 0 10.61z"/>
  <path d="m730.65 213.39c-2.54 4.39-7.22 7.09-12.29 7.09s-9.75-2.7-12.29-7.09c-2.53-4.39-2.53-9.8 0-14.19 2.54-4.39 12.29-19.78 12.29-19.78 0 11.49 9.75 15.39 12.29 19.78 2.53 4.39 2.53 9.8 0 14.19z"/>
  <path d="m510.51 645.34c-3.84 6.65-10.94 10.74-18.62 10.74-7.67 0-14.77-4.09-18.61-10.74s-3.84-14.85 0-21.5c3.84-6.64 18.61-29.95 18.61-29.95 0 17.4 14.78 23.31 18.62 29.95 3.84 6.65 3.84 14.85 0 21.5z"/>
  <path d="m505.35 264c-5.82 10.08-16.57 16.29-28.21 16.29s-22.39-6.21-28.21-16.29c-5.82-10.07-5.82-22.49 0-32.57s28.21-45.41 28.21-45.41c0 26.38 22.39 35.33 28.21 45.41s5.82 22.5 0 32.57z"/>
  <path d="m835.9 621.47c-6.82 11.8-19.41 19.07-33.03 19.07s-26.21-7.27-33.03-19.07c-6.81-11.8-6.81-26.33 0-38.13 6.82-11.8 33.03-53.16 33.03-53.16 0 30.89 26.21 41.36 33.03 53.16 6.81 11.8 6.81 26.34 0 38.13z"/>
  <path d="m714.78 278.22c-3.21 5.57-9.16 9-15.59 9s-12.37-3.43-15.59-9c-3.21-5.57-3.21-12.43 0-18 3.22-5.57 15.59-25.1 15.59-25.1 0 14.58 12.38 19.53 15.59 25.1 3.22 5.57 3.22 12.43 0 18z"/>
  <path d="m847.17 419.55c-4.65 8.07-13.27 13.04-22.59 13.04s-17.93-4.97-22.59-13.04c-4.66-8.08-4.66-18.02 0-26.09s22.59-36.36 22.59-36.36c0 21.12 17.94 28.29 22.59 36.36 4.66 8.07 4.66 18.02 0 26.09z"/>
  <path d="m134.38 608.5c-4.19 7.25-11.93 11.72-20.3 11.72-8.38 0-16.12-4.47-20.31-11.72-4.19-7.26-4.19-16.19 0-23.45 4.19-7.25 20.31-32.68 20.31-32.68 0 18.99 16.11 25.43 20.3 32.68 4.19 7.26 4.19 16.19 0 23.45z"/>
  <path d="m1041.5 591.06c-3.88 6.73-11.06 10.87-18.83 10.87s-14.94-4.14-18.83-10.87c-3.88-6.73-3.88-15.01 0-21.74 3.89-6.73 18.83-30.31 18.83-30.31 0 17.61 14.95 23.58 18.83 30.31 3.89 6.73 3.89 15.01 0 21.74z"/>
  <path d="m433.39 651.35c-2.58 4.47-7.35 7.22-12.51 7.22s-9.93-2.75-12.51-7.22-2.58-9.97 0-14.44 12.51-20.13 12.51-20.13c0 11.69 9.93 15.66 12.51 20.13s2.58 9.97 0 14.44z"/>
  <path d="m415.54 470.7c-6.72 11.64-19.14 18.81-32.58 18.81-13.43 0-25.85-7.17-32.57-18.81s-6.72-25.98 0-37.61c5.83-10.1 26.07-42.16 31.32-50.46 0.8-1.27 1.25-1.98 1.25-1.98 0 0.4 0 0.8 0.02 1.19 0.66 29.55 25.93 39.76 32.56 51.25 6.72 11.63 6.72 25.97 0 37.61z"/>
  <path d="m1033 472.46c-3.47 6.01-9.89 9.72-16.83 9.72-6.95 0-13.37-3.71-16.84-9.72s-3.47-13.42 0-19.44c3.47-6.01 16.84-27.1 16.84-27.1 0 15.75 13.36 21.09 16.83 27.1s3.47 13.42 0 19.44z"/>
  <path d="m1091.5 520.06c-4.2 7.26-11.95 11.74-20.34 11.74-8.38 0-16.14-4.48-20.33-11.74-4.19-7.27-4.19-16.22 0-23.48 4.19-7.27 20.33-32.73 20.33-32.73 0 19.01 16.14 25.46 20.34 32.73 4.19 7.26 4.19 16.21 0 23.48z"/>
  <path d="m389.77 622.58c-2.3 3.97-6.54 6.42-11.13 6.42s-8.83-2.45-11.12-6.42-2.29-8.87 0-12.84c2.29-3.98 11.12-17.91 11.12-17.91 0 10.4 8.83 13.93 11.13 17.91 2.29 3.97 2.29 8.87 0 12.84z"/>
  <path d="m390.95 373.36c-2 3.47-4.74 6.34-7.97 8.48-0.41 0.28-0.84 0.54-1.27 0.79-3.83 2.23-8.24 3.46-12.82 3.46-9.09 0-17.5-4.85-22.05-12.73s-4.55-17.59 0-25.47c3.95-6.84 17.67-28.57 21.21-34.17 0.54-0.85 0.84-1.33 0.84-1.33 0 0.17 0 0.33 0.01 0.5 0.27 20.24 17.54 27.18 22.05 35 4.55 7.88 4.55 17.59 0 25.47z"/>
  <path d="m675.33 402.26c-2.02 3.51-5.77 5.67-9.82 5.67s-7.79-2.16-9.81-5.67c-2.03-3.51-2.03-7.83 0-11.34 2.02-3.5 9.81-15.8 9.81-15.8 0 9.18 7.8 12.3 9.82 15.8 2.03 3.51 2.03 7.83 0 11.34z"/>
  <path d="m775.03 278.91c-4.1 7.1-11.67 11.47-19.87 11.47-8.19 0-15.76-4.37-19.86-11.47s-4.1-15.84 0-22.94 19.86-31.98 19.86-31.98c0 18.58 15.77 24.88 19.87 31.98s4.1 15.84 0 22.94z"/>
  <path d="m970.76 266.03c-3.32 5.75-9.46 9.29-16.11 9.29-6.64 0-12.78-3.54-16.1-9.29-3.32-5.76-3.32-12.85 0-18.6s16.1-25.92 16.1-25.92c0 15.06 12.79 20.17 16.11 25.92s3.32 12.84 0 18.6z"/>
  <path d="m492.79 365.94c-3.13 5.42-8.91 8.76-15.17 8.76s-12.05-3.34-15.18-8.76-3.13-12.1 0-17.52 15.18-24.42 15.18-24.42c0 14.19 12.04 19 15.17 24.42s3.13 12.1 0 17.52z"/>
  <path d="m1666.5 648.62c-2.21 3.84-6.3 6.2-10.73 6.2s-8.52-2.36-10.74-6.2c-2.21-3.84-2.21-8.56 0-12.4 2.22-3.83 10.74-17.28 10.74-17.28 0 10.04 8.52 13.45 10.73 17.28 2.22 3.84 2.22 8.56 0 12.4z"/>
  <path d="m816.4 236.79c-2.16 3.74-6.15 6.04-10.47 6.04-4.31 0-8.3-2.3-10.46-6.04s-2.16-8.34 0-12.08 10.46-16.84 10.46-16.84c0 9.78 8.31 13.1 10.47 16.84 2.15 3.74 2.15 8.34 0 12.08z"/>
  <path d="m1132 295.8c-2.66 4.6-7.58 7.44-12.9 7.44s-10.24-2.84-12.9-7.44c-2.66-4.61-2.66-10.29 0-14.9s12.9-20.76 12.9-20.76c0 12.06 10.24 16.15 12.9 20.76s2.66 10.29 0 14.9z"/>
  <path d="m87.21 675.18c-2.65 4.58-7.54 7.41-12.83 7.41-5.3 0-10.19-2.83-12.83-7.41-2.65-4.58-2.65-10.23 0-14.81 2.64-4.59 12.83-20.66 12.83-20.66 0 12 10.18 16.07 12.83 20.66 2.64 4.58 2.64 10.23 0 14.81z"/>
  <path d="m979.54 626.92c-1.95 3.38-5.55 5.46-9.45 5.46s-7.5-2.08-9.45-5.46-1.95-7.54 0-10.91c1.95-3.38 9.45-15.22 9.45-15.22 0 8.84 7.5 11.84 9.45 15.22 1.95 3.37 1.95 7.53 0 10.91z"/>
  <path d="m1053 400.81c-2.56 4.43-7.29 7.17-12.41 7.17s-9.85-2.73-12.41-7.17c-2.56-4.43-2.56-9.89 0-14.33 2.56-4.43 12.41-19.97 12.41-19.97 0 11.61 9.85 15.54 12.41 19.97 2.56 4.44 2.56 9.9 0 14.33z"/>
  <path d="m766.77 399.12c-6.69 11.59-19.05 18.73-32.43 18.73s-25.75-7.14-32.44-18.73-6.69-25.87 0-37.46c6.69-11.58 32.44-52.21 32.44-52.21 0 30.34 25.74 40.63 32.43 52.21 6.69 11.59 6.69 25.87 0 37.46z"/>
  <path d="m1350 266.48c-3.31 5.72-9.41 9.25-16.02 9.25s-12.72-3.53-16.03-9.25c-3.3-5.73-3.3-12.78 0-18.51 3.31-5.72 16.03-25.79 16.03-25.79 0 14.99 12.71 20.07 16.02 25.79 3.3 5.73 3.3 12.78 0 18.51z"/>
  <path d="m872.27 250.02c-3.04 5.27-8.66 8.51-14.75 8.51-6.08 0-11.7-3.24-14.74-8.51s-3.04-11.76 0-17.02c3.04-5.27 14.74-23.74 14.74-23.74 0 13.79 11.71 18.47 14.75 23.74 3.04 5.26 3.04 11.75 0 17.02z"/>
  <path d="m992.24 401.82c-6.73 11.65-19.16 18.82-32.61 18.82s-25.89-7.17-32.61-18.82c-6.73-11.66-6.73-26.01 0-37.66s32.61-52.49 32.61-52.49c0 30.49 25.88 40.84 32.61 52.49s6.73 26 0 37.66z"/>
  <path d="m544.19 569.14c-3.51 6.1-10.01 9.85-17.05 9.85s-13.54-3.75-17.05-9.84c-3.52-6.1-3.52-13.6 0-19.7 3.51-6.09 17.05-27.45 17.05-27.45 0 15.95 13.54 21.36 17.05 27.45 3.52 6.09 3.52 13.6 0 19.69z"/>
  <path d="m1516.8 408.2c-3.35 5.8-9.54 9.38-16.24 9.38s-12.89-3.57-16.24-9.38c-3.35-5.8-3.35-12.95 0-18.75s16.24-26.14 16.24-26.14c0 15.19 12.89 20.34 16.24 26.14s3.35 12.95 0 18.75z"/>
  <path d="m928.3 306.4c-3.71 6.42-10.56 10.37-17.97 10.37s-14.25-3.95-17.96-10.37c-3.7-6.42-3.7-14.32 0-20.74 3.71-6.42 17.96-28.91 17.96-28.91 0 16.79 14.26 22.49 17.97 28.91 3.7 6.42 3.7 14.32 0 20.74z"/>
  <path d="m262.88 363.76c-2.14 3.7-6.09 5.98-10.36 5.98-4.28 0-8.22-2.28-10.36-5.98-2.14-3.71-2.14-8.27 0-11.97 2.13-3.7 10.36-16.67 10.36-16.67 0 9.68 8.22 12.97 10.36 16.67 2.13 3.7 2.13 8.26 0 11.97z"/>
  <path d="m457.35 331.26c-4.88 8.45-13.9 13.65-23.65 13.65-9.76 0-18.77-5.2-23.65-13.65s-4.88-18.86 0-27.31 23.65-38.06 23.65-38.06c0 22.11 18.77 29.61 23.65 38.06s4.88 18.86 0 27.31z"/>
  <path d="m938.67 198.66c-6.64 11.51-18.93 18.6-32.22 18.6s-25.57-7.09-32.21-18.6c-6.65-11.51-6.65-25.69 0-37.2 6.64-11.51 32.21-51.86 32.21-51.86 0 30.13 25.57 40.35 32.22 51.86s6.65 25.69 0 37.2z"/>
  <path d="m1364.4 376.24c-5.32 9.21-15.14 14.88-25.77 14.88s-20.45-5.67-25.77-14.88c-5.31-9.21-5.31-20.55 0-29.76 5.32-9.2 25.77-41.47 25.77-41.47 0 24.09 20.45 32.27 25.77 41.47 5.31 9.21 5.31 20.55 0 29.76z"/>
  <path d="m937.91 605.52c-2.59 4.48-7.37 7.24-12.54 7.24s-9.96-2.76-12.54-7.24c-2.59-4.48-2.59-10 0-14.48 2.58-4.48 12.54-20.19 12.54-20.19 0 11.73 9.95 15.71 12.54 20.19 2.58 4.48 2.58 10 0 14.48z"/>
  <path d="m1236 609.28c-4.29 7.44-12.23 12.03-20.83 12.03-8.59 0-16.53-4.58-20.82-12.03-4.3-7.44-4.3-16.61 0-24.05 4.29-7.44 20.82-33.52 20.82-33.52 0 19.47 16.54 26.08 20.83 33.52 4.3 7.44 4.3 16.61 0 24.05z"/>
  <path d="m344.07 613.89c-2.31 4-6.58 6.46-11.19 6.46-4.62 0-8.88-2.46-11.19-6.46-2.31-3.99-2.31-8.92 0-12.92 2.31-3.99 11.19-18 11.19-18 0 10.46 8.88 14.01 11.19 18 2.31 4 2.31 8.93 0 12.92z"/>
  <path d="m1188.2 191.4c-2.73 4.72-7.78 7.64-13.24 7.64s-10.5-2.92-13.23-7.64c-2.73-4.73-2.73-10.56 0-15.29s13.23-21.3 13.23-21.3c0 12.37 10.51 16.57 13.24 21.3s2.73 10.56 0 15.29z"/>
  <path d="m533.18 202.86c-2.4 4.17-6.85 6.74-11.67 6.74s-9.27-2.57-11.68-6.74c-2.4-4.17-2.4-9.31 0-13.48 2.41-4.17 11.68-18.79 11.68-18.79 0 10.92 9.26 14.62 11.67 18.79s2.41 9.31 0 13.48z"/>
  <path d="m1623.9 571.38c-5.91 10.22-16.82 16.52-28.62 16.52-11.81 0-22.72-6.3-28.62-16.52-5.91-10.23-5.91-22.83 0-33.05 5.9-10.23 28.62-46.07 28.62-46.07 0 26.76 22.72 35.84 28.62 46.07 5.9 10.22 5.9 22.82 0 33.05z"/>
  <path d="m1083.8 255.2c-1.89 3.27-5.39 5.29-9.17 5.29s-7.28-2.02-9.17-5.29c-1.89-3.28-1.89-7.32 0-10.59 1.89-3.28 9.17-14.76 9.17-14.76 0 8.57 7.28 11.48 9.17 14.76 1.89 3.27 1.89 7.31 0 10.59z"/>
  <path d="m1228.3 388.59c-5.48 9.48-15.59 15.32-26.53 15.32-10.95 0-21.06-5.84-26.53-15.32-5.48-9.48-5.48-21.16 0-30.64 5.47-9.47 26.53-42.7 26.53-42.7 0 24.81 21.05 33.23 26.53 42.7 5.47 9.48 5.47 21.16 0 30.64z"/>
  <path d="m1562.7 473.76c-5.14 8.9-14.63 14.38-24.9 14.38s-19.76-5.48-24.89-14.38c-5.14-8.89-5.14-19.85 0-28.75 5.13-8.89 24.89-40.07 24.89-40.07 0 23.28 19.76 31.18 24.9 40.07 5.13 8.9 5.13 19.86 0 28.75z"/>
  <path d="m1479 478.1c-5.39 9.32-15.33 15.07-26.1 15.07s-20.71-5.75-26.1-15.07c-5.38-9.32-5.38-20.81 0-30.13 5.39-9.33 26.1-42.01 26.1-42.01 0 24.4 20.71 32.68 26.1 42.01 5.38 9.32 5.38 20.81 0 30.13z"/>
  <path d="m1291.3 655.22c-3.85 6.66-10.95 10.76-18.64 10.76s-14.8-4.1-18.64-10.76-3.84-14.86 0-21.52 18.64-30 18.64-30c0 17.43 14.8 23.34 18.64 30s3.84 14.86 0 21.52z"/>
  <path d="m739.1 596.45c-3.05 5.28-8.69 8.54-14.79 8.54s-11.73-3.26-14.78-8.54-3.05-11.79 0-17.07 14.78-23.8 14.78-23.8c0 13.83 11.74 18.52 14.79 23.8s3.05 11.79 0 17.07z"/>
  <path d="m242.08 603.82c-2.74 4.74-7.81 7.67-13.29 7.67s-10.55-2.93-13.29-7.67c-2.74-4.75-2.74-10.6 0-15.35s13.29-21.39 13.29-21.39c0 12.43 10.55 16.64 13.29 21.39s2.74 10.6 0 15.35z"/>
  <path d="m866.24 304.19c-2.28 3.95-6.5 6.39-11.07 6.39-4.56 0-8.78-2.44-11.06-6.39s-2.28-8.82 0-12.77c2.28-3.96 11.06-17.81 11.06-17.81 0 10.34 8.79 13.85 11.07 17.81 2.28 3.95 2.28 8.82 0 12.77z"/>
  <path d="m192.07 596.38c-3.44 5.96-9.79 9.63-16.67 9.63s-13.24-3.67-16.68-9.63c-3.43-5.96-3.43-13.3 0-19.25 3.44-5.96 16.68-26.84 16.68-26.84 0 15.59 13.23 20.88 16.67 26.84 3.44 5.95 3.44 13.29 0 19.25z"/>
  <path d="m625.84 583.02c-4.15 7.17-11.8 11.59-20.09 11.59-8.28 0-15.94-4.42-20.08-11.59-4.14-7.18-4.14-16.02 0-23.2 4.14-7.17 20.08-32.32 20.08-32.32 0 18.78 15.94 25.15 20.09 32.32 4.14 7.18 4.14 16.02 0 23.2z"/>
  <path d="m581.54 269.94c-5.4 9.35-15.37 15.11-26.17 15.11-10.79 0-20.77-5.76-26.16-15.11-5.4-9.34-5.4-20.86 0-30.21 5.39-9.35 26.16-42.12 26.16-42.12 0 24.47 20.77 32.77 26.17 42.12s5.4 20.86 0 30.21z"/>
  <path d="m712.57 159.92c-3 5.18-8.53 8.37-14.51 8.37-5.99 0-11.52-3.19-14.51-8.37-2.99-5.19-2.99-11.57 0-16.76 2.99-5.18 14.51-23.35 14.51-23.35 0 13.57 11.51 18.17 14.51 23.35 2.99 5.19 2.99 11.57 0 16.76z"/>
  <path d="m1054.4 326.78c-6.81 11.81-19.4 19.08-33.03 19.08s-26.22-7.27-33.03-19.08c-6.82-11.8-6.82-26.34 0-38.14 6.81-11.8 33.03-53.17 33.03-53.17 0 30.89 26.22 41.37 33.03 53.17 6.82 11.8 6.82 26.34 0 38.14z"/>
  <path d="m845.89 171.24c-4.77 8.26-13.59 13.35-23.12 13.35-9.54 0-18.35-5.09-23.12-13.35s-4.77-18.44 0-26.69c4.77-8.26 23.12-37.21 23.12-37.21 0 21.61 18.35 28.95 23.12 37.21 4.76 8.25 4.76 18.43 0 26.69z"/>
  <path d="m1593.2 483.71c-1.87 3.25-5.33 5.24-9.08 5.24-3.74 0-7.21-1.99-9.08-5.24-1.87-3.24-1.87-7.24 0-10.49 1.87-3.24 9.08-14.62 9.08-14.62 0 8.5 7.21 11.38 9.08 14.62 1.88 3.25 1.88 7.25 0 10.49z"/>
  <path d="m716.13 521.77c-6.69 11.58-19.04 18.71-32.41 18.71s-25.72-7.13-32.41-18.71c-6.68-11.57-6.68-25.84 0-37.42 6.69-11.58 32.41-52.16 32.41-52.16 0 30.3 25.72 40.58 32.41 52.16 6.68 11.58 6.68 25.84 0 37.42z"/>
  <path d="m1168.5 607.31c-2.82 4.88-8.02 7.88-13.65 7.88s-10.84-3-13.65-7.88c-2.82-4.88-2.82-10.89 0-15.76 2.81-4.88 13.65-21.98 13.65-21.98 0 12.77 10.83 17.1 13.65 21.98 2.82 4.87 2.82 10.88 0 15.76z"/>
  <path d="m1322.1 514.34c-1.99 3.46-5.68 5.59-9.68 5.59s-7.69-2.13-9.69-5.59-2-7.72 0-11.18 9.69-15.59 9.69-15.59c0 9.06 7.69 12.13 9.68 15.59 2 3.46 2 7.72 0 11.18z"/>
  <path d="m874.77 544.34c-2.17 3.76-6.19 6.08-10.53 6.08s-8.35-2.32-10.52-6.08c-2.18-3.76-2.18-8.39 0-12.16 2.17-3.76 10.52-16.94 10.52-16.94 0 9.85 8.36 13.18 10.53 16.94 2.17 3.77 2.17 8.4 0 12.16z"/>
  <path d="m1431.5 340.29c-6.05 10.49-17.23 16.94-29.34 16.94-12.1 0-23.28-6.45-29.34-16.94-6.05-10.48-6.05-23.39 0-33.88 5.56-9.61 25.61-41.33 28.88-46.5 0.3-0.47 0.46-0.72 0.46-0.72 0 0.35 0 0.71 0.02 1.05 0.58 26.62 23.35 35.83 29.32 46.17 6.05 10.49 6.05 23.4 0 33.88z"/>
  <path d="m1250.2 219.01c-3.12 5.4-8.88 8.73-15.12 8.73s-12.01-3.33-15.13-8.73c-3.12-5.41-3.12-12.07 0-17.47s15.13-24.35 15.13-24.35c0 14.15 12 18.94 15.12 24.35 3.12 5.4 3.12 12.06 0 17.47z"/>
  <path d="m584.35 182.51c-2.28 3.95-6.49 6.38-11.05 6.38s-8.77-2.43-11.05-6.38-2.28-8.81 0-12.76 11.05-17.79 11.05-17.79c0 10.33 8.77 13.84 11.05 17.79s2.28 8.81 0 12.76z"/>
  <path d="m968.15 140.64c-2.13 3.69-6.07 5.96-10.33 5.96s-8.2-2.27-10.33-5.96-2.13-8.24 0-11.93c2.13-3.7 10.33-16.63 10.33-16.63 0 9.66 8.2 12.93 10.33 16.63 2.13 3.69 2.13 8.23 0 11.93z"/>
  <path d="m577.65 514.52c-2.93 5.08-8.35 8.21-14.21 8.21s-11.27-3.13-14.2-8.21c-2.94-5.07-2.93-11.33 0-16.4 2.93-5.08 14.2-22.87 14.2-22.87 0 13.29 11.28 17.79 14.21 22.87 2.93 5.07 2.93 11.33 0 16.4z"/>
  <path d="m1359.1 654.97c-2.18 3.78-6.21 6.1-10.57 6.1-4.37 0-8.4-2.32-10.58-6.1s-2.18-8.44 0-12.21c2.18-3.78 10.58-17.03 10.58-17.03 0 9.89 8.39 13.25 10.57 17.03 2.18 3.77 2.18 8.43 0 12.21z"/>
  <path d="m1528.6 598.97c-1.91 3.31-5.44 5.35-9.27 5.35-3.82 0-7.35-2.04-9.27-5.35-1.91-3.31-1.91-7.39 0-10.7 1.92-3.31 9.27-14.92 9.27-14.92 0 8.67 7.36 11.61 9.27 14.92 1.92 3.31 1.92 7.39 0 10.7z"/>
  <path d="m1285.7 567.75c-2.29 3.96-6.51 6.4-11.09 6.4-4.57 0-8.8-2.44-11.08-6.4-2.29-3.96-2.29-8.84 0-12.8 2.28-3.96 11.08-17.85 11.08-17.85 0 10.37 8.8 13.89 11.09 17.85s2.29 8.84 0 12.8z"/>
  <path d="m1147.5 442.61c-7.36 12.75-20.96 20.6-35.68 20.6s-28.32-7.85-35.68-20.6c-7.36-12.74-7.36-28.45 0-41.19 7.36-12.75 35.68-57.43 35.68-57.43 0 33.36 28.32 44.68 35.68 57.43 7.36 12.74 7.36 28.45 0 41.19z"/>
  <path d="m675.7 597.57c-2.28 3.96-6.51 6.39-11.08 6.39s-8.79-2.43-11.08-6.39c-2.28-3.96-2.28-8.84 0-12.79 2.29-3.96 11.08-17.84 11.08-17.84 0 10.36 8.8 13.88 11.08 17.84 2.28 3.95 2.28 8.83 0 12.79z"/>
  <path d="m516.44 495.05c-2.97 5.15-8.47 8.32-14.42 8.32s-11.44-3.17-14.42-8.32c-2.97-5.15-2.97-11.5 0-16.65 2.98-5.16 14.42-23.21 14.42-23.21 0 13.48 11.45 18.05 14.42 23.21 2.98 5.15 2.98 11.5 0 16.65z"/>
  <path d="m300.97 598.53c-2.99 5.18-8.51 8.37-14.49 8.37s-11.5-3.19-14.49-8.37c-2.98-5.17-2.98-11.55 0-16.72 2.99-5.18 14.49-23.32 14.49-23.32 0 13.54 11.5 18.14 14.49 23.32 2.99 5.17 2.99 11.55 0 16.72z"/>
  <path d="m1113.5 595.37c-4.34 7.52-12.36 12.15-21.04 12.15s-16.7-4.63-21.04-12.15-4.34-16.78 0-24.29c4.34-7.52 21.04-33.86 21.04-33.86 0 19.67 16.7 26.34 21.04 33.86 4.34 7.51 4.34 16.77 0 24.29z"/>
  <path d="m1302.4 308.01c-6.69 11.58-19.05 18.72-32.43 18.72s-25.74-7.14-32.43-18.72c-6.69-11.59-6.69-25.86 0-37.45 6.69-11.58 32.43-52.19 32.43-52.19 0 30.32 25.74 40.61 32.43 52.19 6.68 11.59 6.68 25.86 0 37.45z"/>
  <path d="m1519.1 538.65c-2.58 4.46-7.35 7.22-12.51 7.22s-9.93-2.76-12.51-7.22c-2.58-4.47-2.58-9.98 0-14.45s12.51-20.13 12.51-20.13c0 11.69 9.93 15.66 12.51 20.13s2.58 9.97 0 14.45z"/>
  <path d="m533.04 331.38c-2.85 4.94-8.12 7.98-13.82 7.98s-10.97-3.04-13.82-7.98c-2.86-4.94-2.86-11.02 0-15.96 2.85-4.94 13.82-22.25 13.82-22.25 0 12.93 10.97 17.31 13.82 22.25s2.85 11.02 0 15.96z"/>
  <path d="m480.86 450.16c-3.6 6.23-10.24 10.06-17.42 10.06-7.19 0-13.83-3.83-17.42-10.06-3.6-6.22-3.6-13.89 0-20.11 3.59-6.23 17.42-28.04 17.42-28.04 0 16.29 13.82 21.81 17.42 28.04 3.59 6.22 3.59 13.89 0 20.11z"/>
  <path d="m1130.1 196.69c-4.73 8.19-13.47 13.24-22.93 13.24s-18.2-5.05-22.93-13.24c-4.72-8.19-4.72-18.29 0-26.48 4.73-8.19 22.93-36.9 22.93-36.9 0 21.44 18.2 28.71 22.93 36.9s4.73 18.29 0 26.48z"/>
  <path d="m648.83 460.78c-7.16 12.4-20.39 20.04-34.71 20.04s-27.55-7.64-34.71-20.04-7.16-27.68 0-40.08 34.71-55.87 34.71-55.87c0 32.46 27.55 43.47 34.71 55.87s7.16 27.68 0 40.08z"/>
  <path d="m280.25 542.69c-6.32 10.95-18.01 17.7-30.65 17.7-12.65 0-24.33-6.75-30.65-17.7-6.33-10.95-6.33-24.45 0-35.4 6.32-10.95 30.65-49.34 30.65-49.34 0 28.67 24.33 38.39 30.65 49.34 6.33 10.95 6.33 24.45 0 35.4z"/>
  <path d="m1178.1 536.93c-4.64 8.04-13.22 12.99-22.5 12.99s-17.86-4.95-22.5-12.99c-4.64-8.03-4.64-17.94 0-25.97 4.64-8.04 22.5-36.22 22.5-36.22 0 21.04 17.86 28.18 22.5 36.22 4.64 8.03 4.64 17.94 0 25.97z"/>
  <path d="m1068.6 153.91c-2.33 4.05-6.66 6.54-11.33 6.54-4.68 0-9-2.49-11.34-6.54-2.33-4.05-2.33-9.04 0-13.09 2.34-4.05 11.34-18.25 11.34-18.25 0 10.6 8.99 14.2 11.33 18.25s2.34 9.04 0 13.09z"/>
  <path d="m1193.6 457.25c-1.92 3.32-5.46 5.37-9.3 5.37s-7.39-2.05-9.31-5.37c-1.92-3.33-1.92-7.43 0-10.75 1.92-3.33 9.31-14.98 9.31-14.98 0 8.7 7.38 11.65 9.3 14.98 1.92 3.32 1.92 7.42 0 10.75z"/>
  <path d="m779.04 198.98c-2.85 4.93-8.11 7.97-13.8 7.97s-10.95-3.04-13.8-7.97c-2.84-4.93-2.84-11 0-15.93 2.85-4.93 13.8-22.21 13.8-22.21 0 12.91 10.95 17.28 13.8 22.21 2.84 4.93 2.84 11 0 15.93z"/>
 </g>
</svg>
